<svg id="Capa_1" enable-background="new 0 0 512 512" height="512" viewBox="0 0 512 512" width="512" xmlns="http://www.w3.org/2000/svg"><g><path d="m512 256c0 141.385-114.615 256-256 256s-256-114.615-256-256 114.615-256 256-256 256 114.615 256 256z" fill="#19305c"/><path d="m492.208 236.83c12.287 13.333 19.792 31.14 19.792 50.7 0 41.331-33.505 74.836-74.836 74.836-4.361 0-8.635-.373-12.791-1.089-23.292 47.028-71.775 79.362-127.81 79.362-38.993 0-74.329-15.657-100.064-41.027-15.342 11.767-34.537 18.76-55.365 18.76-50.288 0-91.054-40.766-91.054-91.054 0-11.65 2.188-22.79 6.176-33.029-25.709-4.131-45.347-26.417-45.347-53.289 0-29.81 24.166-53.976 53.975-53.976 2.115 0 4.201.122 6.252.358 10.967-37.973 45.985-65.742 87.49-65.742 18.548 0 35.801 5.546 50.19 15.07 11.828-36.56 46.152-63 86.65-63 42.048 0 77.439 28.501 87.908 67.239 13.309-16.174 33.48-26.489 56.061-26.489 40.076 0 72.564 32.488 72.564 72.564.001 19.284-7.521 36.81-19.791 49.806z" fill="#232e7a"/><path d="m112.499 82.723c-.733-.459-.733-1.527 0-1.987 3.962-2.482 7.31-5.83 9.792-9.792.459-.733 1.528-.733 1.987 0 2.482 3.962 5.83 7.31 9.792 9.792.733.459.733 1.528 0 1.987-3.962 2.482-7.31 5.83-9.792 9.792-.459.733-1.528.733-1.987 0-2.482-3.962-5.83-7.31-9.792-9.792zm176.837 116.46c-3.962-2.422-7.31-5.689-9.792-9.555-.459-.715-1.528-.715-1.987 0-2.482 3.866-5.83 7.133-9.792 9.555-.733.448-.733 1.49 0 1.938 3.962 2.422 7.31 5.689 9.792 9.555.459.716 1.528.716 1.987 0 2.482-3.866 5.83-7.133 9.792-9.555.734-.448.734-1.49 0-1.938zm-154.769 175.502c-3.962-2.482-7.31-5.83-9.792-9.792-.459-.733-1.528-.733-1.987 0-2.482 3.962-5.83 7.31-9.792 9.792-.733.459-.733 1.528 0 1.987 3.962 2.482 7.31 5.83 9.792 9.792.459.733 1.528.733 1.987 0 2.482-3.962 5.83-7.31 9.792-9.792.733-.459.733-1.527 0-1.987zm282.715-57.212c-3.962-2.422-7.31-5.689-9.792-9.555-.459-.716-1.528-.716-1.987 0-2.482 3.866-5.83 7.133-9.792 9.555-.733.448-.733 1.49 0 1.939 3.962 2.422 7.31 5.689 9.792 9.555.459.715 1.528.715 1.987 0 2.482-3.866 5.83-7.133 9.792-9.555.733-.448.733-1.491 0-1.939zm-90.58-170.772c-3.962-2.482-7.31-5.83-9.792-9.792-.459-.733-1.528-.733-1.987 0-2.482 3.962-5.83 7.31-9.792 9.792-.733.459-.733 1.528 0 1.987 3.962 2.482 7.31 5.83 9.792 9.792.459.733 1.528.733 1.987 0 2.482-3.962 5.83-7.31 9.792-9.792.733-.459.733-1.527 0-1.987z" fill="#717ed6"/><path d="m498.859 317.287-39.041-144.915c-.117-.481-5.072-4.529-7.439-3.103l-183.523 110.492c-.462-.255-.972-.441-1.52-.541l-96.632-17.656-80.62-99.938c-1.734-2.149-7.647-.187-7.891.137l-72.165 92.187c-1.702 2.175-1.319 5.317.855 7.02.915.716 2 1.063 3.079 1.063 1.485 0 2.955-.658 3.94-1.918l68.349-87.313 77.836 96.487c.777.963 1.839 1.562 2.967 1.774.009.002.017.004.026.005l98.458 17.99c.304.055.606.082.905.082.15 0 .299-.007.446-.02l94.987 107.968c.216.251 5.976 1.25 6.342 1.032l129.473-73.033c.918-.518 1.445-7.508 1.168-7.8zm-132.121 70.187-89.13-101.311 174.247-104.907 36.999 137.335z" fill="#717ed6"/><path d="m335.656 352.145c2.841 3.23.548 8.302-3.754 8.302h-.001c-1.437 0-2.805-.618-3.754-1.697l-37.888-43.065c-2.841-3.23-.548-8.302 3.754-8.302h.001c1.437 0 2.805.618 3.754 1.697zm-111.779-80.866-53.173-9.716-49.367-61.196c-2.961-3.671-8.892-1.577-8.892 3.14 0 1.142.391 2.25 1.108 3.139l50.533 62.642c.777.963 1.839 1.562 2.967 1.774.009.002.017.004.026.005l55 10.05c3.071.561 5.899-1.797 5.899-4.919.001-2.415-1.725-4.485-4.101-4.919zm264.415 6.786-28.475-105.693c-.117-.481-5.072-4.529-7.439-3.103l-136.702 82.303c-1.502.904-2.421 2.53-2.421 4.283 0 3.89 4.246 6.29 7.579 4.283l131.021-78.882 26.782 99.41c.588 2.183 2.567 3.699 4.828 3.699 3.29 0 5.683-3.123 4.827-6.3zm-423.206-85.357c-2.122-2.122-5.622-1.91-7.472.453l-22.424 28.646c-1.558 1.99-1.385 4.83.402 6.617 2.122 2.122 5.622 1.91 7.472-.453l22.424-28.646c1.558-1.99 1.386-4.83-.402-6.617zm384.97 147.768-42.853 24.173c-1.571.886-2.543 2.551-2.543 4.354 0 3.827 4.123 6.235 7.456 4.355l42.853-24.173c1.571-.886 2.543-2.551 2.543-4.354 0-3.827-4.123-6.235-7.456-4.355z" fill="#a6aee5"/><path d="m160.865 201.344 7.566 11.249c.693 1.03 1.999 1.454 3.165 1.028l12.733-4.653c1.799-.658 3.692.717 3.622 2.632l-.491 13.548c-.045 1.241.762 2.352 1.956 2.692l13.036 3.72c1.842.526 2.565 2.75 1.384 4.258l-8.36 10.672c-.766.977-.766 2.351 0 3.328l8.36 10.672c1.181 1.508.459 3.733-1.384 4.259l-13.036 3.72c-1.194.341-2.001 1.452-1.956 2.692l.491 13.548c.069 1.915-1.823 3.29-3.622 2.632l-12.733-4.653c-1.166-.426-2.472-.002-3.165 1.028l-7.566 11.249c-1.069 1.59-3.408 1.59-4.478 0l-7.566-11.249c-.693-1.03-1.999-1.454-3.165-1.028l-12.733 4.653c-1.799.658-3.692-.717-3.622-2.632l.491-13.548c.045-1.241-.762-2.352-1.956-2.692l-13.036-3.72c-1.842-.526-2.565-2.75-1.384-4.259l8.36-10.672c.766-.977.766-2.351 0-3.328l-8.36-10.672c-1.181-1.508-.459-3.733 1.384-4.258l13.036-3.72c1.194-.341 2.001-1.452 1.956-2.692l-.491-13.548c-.069-1.915 1.823-3.29 3.622-2.632l12.733 4.653c1.166.426 2.472.002 3.165-1.028l7.566-11.249c1.07-1.59 3.409-1.59 4.478 0zm-133.89 61.361c.646-.193 1.196.51.846 1.086-2.641 4.337-7.419 7.228-12.872 7.21-8.205-.029-14.921-6.745-14.949-14.95-.018-5.457 2.877-10.239 7.219-12.878.573-.348 1.272.198 1.079.841-.434 1.447-.656 2.986-.629 4.581.137 8.043 6.693 14.598 14.735 14.735 1.592.027 3.127-.193 4.571-.625zm255.184 28.823c.646-.193 1.196.51.846 1.086-2.641 4.337-7.419 7.228-12.872 7.21-8.205-.027-14.921-6.744-14.949-14.949-.018-5.457 2.877-10.239 7.219-12.878.573-.348 1.272.198 1.079.841-.434 1.447-.656 2.986-.629 4.581.137 8.043 6.693 14.598 14.735 14.735 1.592.027 3.127-.193 4.571-.626z" fill="#ffa90b"/><path d="m163.465 271.866-6.716-3.896c-.459-.266-1.005-.339-1.517-.203l-7.504 1.994c-1.068.284-2.163-.352-2.447-1.419l-1.994-7.504c-.136-.513-.471-.95-.929-1.216l-6.716-3.896c-.955-.554-1.281-1.778-.726-2.734l3.896-6.716c.266-.459.339-1.005.203-1.517l-1.994-7.504c-.284-1.068.352-2.163 1.419-2.447l7.504-1.994c.513-.136.95-.471 1.216-.929l3.896-6.716c.554-.955 1.778-1.281 2.734-.726l6.716 3.896c.459.266 1.005.339 1.517.203l7.504-1.994c1.068-.284 2.163.352 2.447 1.419l1.994 7.504c.136.513.471.95.929 1.216l6.716 3.896c.955.554 1.281 1.778.726 2.734l-3.896 6.716c-.266.459-.339 1.005-.203 1.517l1.994 7.504c.284 1.068-.352 2.163-1.419 2.447l-7.504 1.994c-.513.136-.95.471-1.216.929l-3.896 6.716c-.555.955-1.779 1.28-2.734.726zm-133.465-15.866c0 2.899-.823 5.607-2.247 7.901-2.294 1.425-5.002 2.247-7.901 2.247-8.284 0-15-6.716-15-15 0-2.899.823-5.607 2.247-7.901 2.294-1.424 5.002-2.247 7.901-2.247 8.284 0 15 6.716 15 15zm255.184 28.824c0 2.899-.823 5.607-2.247 7.901-2.294 1.425-5.002 2.247-7.901 2.247-8.284 0-15-6.716-15-15 0-2.899.823-5.607 2.247-7.901 2.294-1.425 5.002-2.247 7.901-2.247 8.284 0 15 6.715 15 15zm-181.645-111.12c.861-.258 1.595.679 1.127 1.447-3.521 5.782-9.893 9.637-17.163 9.613-10.94-.037-19.895-8.992-19.931-19.931-.024-7.276 3.836-13.651 9.625-17.171.764-.464 1.696.265 1.439 1.121-.579 1.929-.875 3.982-.838 6.108.183 10.724 8.923 19.464 19.647 19.647 2.122.037 4.169-.257 6.094-.834zm274.856 227.68c.861-.258 1.595.679 1.127 1.447-3.521 5.782-9.893 9.637-17.163 9.613-10.94-.037-19.895-8.992-19.931-19.931-.024-7.276 3.836-13.651 9.625-17.171.764-.464 1.696.265 1.439 1.121-.579 1.93-.875 3.982-.838 6.108.183 10.724 8.923 19.464 19.647 19.647 2.121.036 4.168-.258 6.094-.834zm129.572-70.767c.861-.258 1.595.679 1.127 1.447-3.521 5.782-9.893 9.637-17.163 9.613-10.94-.037-19.895-8.992-19.931-19.931-.024-7.276 3.836-13.651 9.625-17.171.764-.464 1.696.265 1.439 1.121-.579 1.929-.875 3.982-.838 6.108.183 10.724 8.923 19.464 19.647 19.647 2.122.036 4.169-.258 6.094-.834z" fill="#ffc14f"/><path d="m220.881 48.308c-6.294 3.943-11.612 9.261-15.555 15.554-.73 1.165-2.426 1.165-3.156 0-3.943-6.293-9.261-11.612-15.555-15.554-1.165-.73-1.165-2.427 0-3.156 6.294-3.943 11.612-9.261 15.555-15.555.73-1.165 2.426-1.165 3.156 0 3.943 6.294 9.261 11.612 15.555 15.555 1.164.73 1.164 2.427 0 3.156zm-14.746 409.695c-3.962-2.482-7.31-5.83-9.792-9.792-.459-.733-1.528-.733-1.987 0-2.482 3.962-5.83 7.31-9.792 9.792-.733.459-.733 1.528 0 1.987 3.962 2.482 7.31 5.83 9.792 9.792.459.733 1.528.733 1.987 0 2.482-3.962 5.83-7.31 9.792-9.792.734-.46.734-1.528 0-1.987zm-24.523-217.421-6.716-3.896c-.459-.266-.793-.704-.929-1.216l-1.994-7.504c-.284-1.068-1.379-1.703-2.447-1.419l-7.504 1.994c-.513.136-1.058.063-1.517-.203l-6.716-3.896c-.955-.554-2.179-.229-2.733.726l-3.896 6.716c-.266.459-.704.793-1.216.929l-3.919 1.041c6.628 12.447 16.677 22.795 28.891 29.791.125-.064.258-.115.396-.152l7.504-1.994c1.068-.284 1.703-1.379 1.419-2.447l-1.994-7.504c-.136-.513-.063-1.058.203-1.517l3.896-6.716c.553-.955.228-2.179-.728-2.733zm-94.04-95.817c-3.866 0-7.475 1.097-10.535 2.996-1.899 3.059-2.996 6.669-2.996 10.535 0 11.046 8.954 20 20 20 3.866 0 7.475-1.097 10.535-2.996 1.899-3.059 2.996-6.669 2.996-10.535 0-11.046-8.954-20-20-20zm274.856 227.679c-3.866 0-7.475 1.097-10.535 2.996-1.899 3.059-2.996 6.669-2.996 10.535 0 11.046 8.954 20 20 20 3.866 0 7.475-1.097 10.535-2.996 1.899-3.059 2.996-6.669 2.996-10.535 0-11.046-8.955-20-20-20zm129.572-70.767c-3.866 0-7.475 1.097-10.535 2.996-1.899 3.059-2.996 6.669-2.996 10.535 0 11.046 8.954 20 20 20 3.866 0 7.475-1.097 10.535-2.996 1.899-3.059 2.996-6.669 2.996-10.535 0-11.046-8.954-20-20-20zm-18.572-115.351c-2.406.72-4.966 1.088-7.617 1.043-13.405-.229-24.33-11.154-24.559-24.559-.045-2.658.324-5.223 1.048-7.635.321-1.07-.844-1.982-1.799-1.401-7.236 4.399-12.062 12.369-12.032 21.463.046 13.675 11.24 24.869 24.914 24.915 9.088.03 17.053-4.789 21.454-12.016.585-.96-.332-2.132-1.409-1.81z" fill="#fff36c"/><path d="m478.469 175.152c0 4.832-1.371 9.344-3.745 13.168-3.824 2.374-8.336 3.745-13.168 3.745-13.807 0-25-11.193-25-25 0-4.832 1.371-9.344 3.745-13.168 3.824-2.374 8.336-3.745 13.168-3.745 13.807 0 25 11.193 25 25z" fill="#fff79f"/></g></svg>