<?xml version="1.0" encoding="utf-8"?><svg xml:space="preserve" viewBox="0 0 100 100" y="0" x="0" xmlns="http://www.w3.org/2000/svg" id="圖層_1" version="1.1" width="194px" height="194px" xmlns:xlink="http://www.w3.org/1999/xlink" style="width:100%;height:100%;background-size:initial;background-repeat-y:initial;background-repeat-x:initial;background-position-y:initial;background-position-x:initial;background-origin:initial;background-image:initial;background-color:rgb(255, 255, 255);background-clip:initial;background-attachment:initial;animation-play-state:paused" ><g class="ldl-scale" style="transform-origin:50% 50%;transform:rotate(0deg) scale(0.8, 0.8);animation-play-state:paused" ><g style="animation-play-state:paused" ><path d="M57.7 43l8.4-7.9V7.5H33.9v27.6l8.4 7.9z" fill="#c33737" style="fill:rgb(195, 55, 55);animation-play-state:paused" ></path>
<path d="M38.2 7.5v31.6l4.1 3.9h.2V7.5z" fill="#e0e0e0" style="fill:rgb(224, 224, 224);animation-play-state:paused" ></path>
<path d="M57.5 7.5V43h.2l4.1-3.9V7.5z" fill="#e0e0e0" style="fill:rgb(224, 224, 224);animation-play-state:paused" ></path></g>
<g style="animation-play-state:paused" ><path fill="#f47e60" d="M62.7 44L36.8 88.9c3.9 2.3 8.4 3.6 13.2 3.6 14.3 0 25.9-11.6 25.9-25.9 0-9.7-5.3-18.2-13.2-22.6z" style="fill:rgb(244, 126, 96);animation-play-state:paused" ></path>
<path fill="#f8b26a" d="M50 40.7c-14.3 0-25.9 11.6-25.9 25.9 0 9.5 5.1 17.8 12.7 22.3L62.7 44c-3.8-2.1-8.1-3.3-12.7-3.3z" style="fill:rgb(248, 178, 106);animation-play-state:paused" ></path>
<path fill="#ffdc6c" d="M58 52.1L41.5 80.8c2.5 1.5 5.4 2.4 8.5 2.4 9.2 0 16.6-7.4 16.6-16.6 0-6.3-3.5-11.7-8.6-14.5z" style="fill:rgb(255, 220, 108);animation-play-state:paused" ></path>
<path fill="#f5e6c8" d="M50 50c-9.2 0-16.6 7.4-16.6 16.6 0 6 3.2 11.3 8 14.2L58 52.1c-2.3-1.3-5.1-2.1-8-2.1z" style="fill:rgb(245, 230, 200);animation-play-state:paused" ></path></g>
<metadata xmlns:d="https://loading.io/stock/" style="animation-play-state:paused" ><d:name style="animation-play-state:paused" >medal</d:name>


<d:tags style="animation-play-state:paused" >badge,prize,winner,trophy,honor,gold,medal,web application</d:tags>


<d:license style="animation-play-state:paused" >by</d:license>


<d:slug style="animation-play-state:paused" >iv2yu8</d:slug></metadata></g><!-- generated by https://loading.io/ --></svg>