<?xml version="1.0" standalone="no"?>
<!DOCTYPE svg PUBLIC "-//W3C//DTD SVG 20010904//EN"
 "http://www.w3.org/TR/2001/REC-SVG-20010904/DTD/svg10.dtd">
<svg version="1.0" xmlns="http://www.w3.org/2000/svg"
 width="1280.000000pt" height="850.000000pt" viewBox="0 0 1280.000000 850.000000"
 preserveAspectRatio="xMidYMid meet">
<metadata>
Created by potrace 1.15, written by Peter Selinger 2001-2017
</metadata>
<g transform="translate(0.000000,850.000000) scale(0.100000,-0.100000)"
fill="#52B7F6" stroke="none">
<path d="M5251 8205 c-13 -33 -35 -94 -51 -135 l-27 -75 137 -300 c76 -165
148 -320 159 -345 21 -46 41 -116 176 -620 112 -418 204 -758 220 -816 11 -38
24 -59 51 -79 19 -15 37 -25 39 -23 2 2 -20 89 -49 193 -64 226 -158 564 -256
915 -39 140 -98 350 -130 465 -33 116 -100 356 -150 535 -50 179 -92 330 -93
335 -2 6 -14 -17 -26 -50z"/>
<path d="M5303 8239 c3 -14 71 -254 150 -534 79 -281 231 -819 338 -1197 106
-379 196 -688 199 -688 3 0 16 21 28 46 20 40 21 51 11 81 -6 19 -9 37 -6 40
3 3 58 13 122 23 63 9 117 19 119 21 3 2 11 33 20 69 l15 65 -27 22 c-62 50
-69 50 -113 7 -22 -21 -64 -66 -92 -99 l-52 -59 108 57 c93 50 107 55 107 38
0 -11 -14 -28 -32 -39 -60 -35 -178 -95 -182 -91 -4 4 -154 504 -332 1104 -41
138 -73 254 -71 258 1 5 110 77 242 162 207 132 240 156 238 177 -1 12 -4 49
-8 80 l-6 57 -52 17 c-29 9 -57 19 -64 21 -6 3 -87 -96 -179 -219 -196 -262
-173 -232 -179 -227 -2 3 -20 140 -39 304 -20 165 -38 314 -41 330 -4 24 -27
47 -107 110 -119 93 -123 95 -115 64z m717 -461 c0 -18 -399 -392 -408 -383
-7 7 386 395 401 395 4 0 7 -6 7 -12z"/>
<path d="M4854 7548 c-62 -67 -61 -62 -24 -138 l33 -68 131 -6 c263 -11 436
-14 436 -8 0 4 -60 20 -133 35 -395 85 -417 90 -417 103 0 8 2 14 5 14 2 0
122 -27 267 -60 144 -33 266 -59 272 -57 9 3 -515 217 -532 217 -4 0 -22 -15
-38 -32z"/>
<path d="M6065 7098 c-126 -211 -230 -387 -233 -393 -10 -21 33 29 283 320
141 165 261 302 267 304 29 10 -18 -53 -247 -329 -279 -337 -296 -358 -275
-345 10 6 636 514 679 551 4 4 -39 225 -46 233 -4 5 -163 40 -184 41 -11 0
-91 -125 -244 -382z"/>
<path d="M8453 7261 c-5 -3 -28 -33 -51 -65 l-42 -59 71 -136 c111 -211 201
-373 205 -368 2 2 -9 44 -25 93 -16 49 -51 157 -76 239 -26 83 -52 165 -58
182 -11 33 -4 55 12 37 5 -5 44 -125 87 -268 43 -142 80 -254 82 -247 7 20
-70 556 -82 567 -13 14 -111 33 -123 25z"/>
<path d="M9215 7216 l-130 -22 -172 -239 c-95 -132 -192 -267 -215 -300 -23
-33 -287 -303 -586 -600 l-543 -540 1 -45 1 -45 280 285 c155 157 557 562 895
900 338 339 614 619 614 623 0 4 -3 6 -7 6 -5 -1 -66 -11 -138 -23z"/>
<path d="M9286 7127 c-87 -91 -697 -708 -1303 -1318 -216 -217 -393 -399 -393
-403 0 -5 23 -6 51 -3 58 7 72 18 204 157 131 138 510 535 651 680 66 69 149
155 184 193 35 37 67 67 71 67 5 0 119 -58 254 -130 135 -71 251 -130 258
-130 23 0 127 83 127 101 0 10 -5 41 -11 68 -10 46 -13 51 -42 56 -18 2 -142
19 -277 36 -135 17 -247 33 -249 35 -7 6 -9 4 269 209 140 103 256 188 257
190 3 2 43 253 43 268 0 18 -20 2 -94 -76z m-327 -653 c86 -25 167 -49 181
-54 14 -5 60 -19 103 -31 71 -20 100 -39 60 -39 -24 0 -516 150 -527 161 -19
18 28 9 183 -37z"/>
<path d="M5818 7168 l-58 -10 1 -72 c1 -39 4 -109 7 -156 l7 -85 23 80 c13 44
30 104 39 134 14 48 17 52 31 38 14 -15 12 -27 -16 -135 -18 -66 -32 -125 -32
-132 0 -6 36 38 80 99 44 62 80 113 80 116 0 9 -92 135 -98 134 -4 -1 -33 -6
-64 -11z"/>
<path d="M7828 7035 c-40 -48 -74 -90 -76 -94 -1 -5 32 -95 74 -202 209 -531
246 -624 251 -629 3 -3 3 11 -1 30 -4 19 -38 208 -77 419 -61 333 -74 429 -54
409 3 -2 41 -184 85 -403 45 -220 83 -402 87 -405 3 -3 3 81 -1 185 -3 105 -9
306 -12 448 -5 166 -11 260 -18 266 -6 5 -42 19 -81 30 -38 12 -77 24 -87 27
-11 3 -38 -21 -90 -81z"/>
<path d="M4725 7000 l-70 -70 35 -101 c19 -55 37 -104 41 -110 5 -8 443 -76
852 -132 44 -6 31 7 -26 24 -126 39 -741 259 -750 268 -6 6 -9 13 -6 15 2 3
182 -53 399 -124 217 -71 396 -128 398 -125 2 2 -29 20 -69 41 -41 20 -101 51
-134 69 -79 43 -596 315 -598 315 -2 0 -34 -32 -72 -70z"/>
<path d="M5359 7038 c-45 -19 -47 -21 -53 -71 -14 -117 -21 -106 117 -165 133
-57 155 -62 117 -31 -85 71 -179 170 -174 184 4 8 10 15 15 15 4 0 49 -39 99
-86 50 -48 92 -85 95 -83 2 2 -28 62 -67 132 -47 85 -75 127 -87 126 -9 0 -37
-10 -62 -21z"/>
<path d="M5924 6619 c-25 -50 -44 -93 -42 -95 2 -2 31 23 63 56 33 33 63 60
67 60 21 0 2 -32 -58 -98 -64 -71 -65 -71 -27 -54 21 10 62 30 91 45 l52 27 0
56 0 55 -46 19 c-25 11 -47 20 -50 20 -2 0 -24 -41 -50 -91z"/>
<path d="M6042 6439 c-40 -117 -71 -213 -69 -215 1 -2 56 66 121 151 65 86
122 157 126 160 4 3 13 -9 20 -25 12 -30 10 -34 -110 -191 -67 -88 -120 -162
-118 -163 5 -5 343 214 346 225 5 13 -38 212 -48 222 -7 8 -160 46 -185 47 -6
0 -43 -95 -83 -211z"/>
<path d="M6935 6544 c-55 -41 -101 -81 -103 -88 -1 -7 1 -73 7 -147 5 -74 8
-135 6 -137 -1 -1 -69 16 -151 39 l-149 41 -47 -54 c-26 -29 -48 -60 -47 -68
0 -8 19 -78 43 -154 l43 -139 59 -30 59 -30 117 124 117 123 19 -44 c10 -25
38 -94 62 -153 l43 -108 58 -29 57 -30 132 130 131 129 -6 48 c-4 26 -10 51
-14 55 -3 4 -85 28 -181 54 -96 26 -179 51 -184 55 -4 4 25 60 65 124 l73 118
-16 46 c-60 172 -72 201 -82 201 -6 0 -56 -34 -111 -76z"/>
<path d="M8230 6559 c-30 -17 -59 -35 -64 -39 -9 -9 11 -246 22 -265 4 -5 20
49 37 120 28 117 33 130 54 133 18 3 22 0 17 -15 -14 -48 -56 -236 -53 -240 5
-4 157 244 157 255 -1 9 -96 82 -107 82 -4 0 -33 -14 -63 -31z"/>
<path d="M5455 6538 c-29 -34 -28 -58 3 -112 17 -28 20 -30 77 -27 33 2 80 6
105 10 l45 7 -50 12 c-121 31 -155 44 -155 58 0 8 1 14 3 14 1 0 42 -11 92
-24 49 -14 91 -23 93 -22 4 4 -169 116 -179 116 -4 0 -19 -14 -34 -32z"/>
<path d="M5316 6381 l-68 -69 36 -110 37 -110 172 -7 c283 -11 282 -12 59 75
l-192 75 0 34 c0 28 3 32 18 26 172 -68 355 -135 358 -133 3 4 -330 280 -344
286 -4 1 -38 -29 -76 -67z"/>
<path d="M7577 6210 l-77 -88 91 -174 c50 -95 95 -177 100 -182 13 -14 12 -1
-16 193 -14 95 -25 181 -25 191 0 21 49 46 55 27 2 -6 16 -96 31 -199 15 -104
29 -186 32 -183 9 9 80 440 74 446 -7 5 -122 41 -167 52 -15 4 -38 -15 -98
-83z"/>
<path d="M8595 6242 c-22 -14 -78 -50 -124 -79 -46 -29 -78 -53 -70 -53 8 0
64 12 126 27 62 15 115 24 119 20 19 -19 -14 -37 -118 -62 -133 -33 -154 -41
-118 -49 37 -7 242 -28 245 -24 1 2 18 35 38 73 l35 70 -40 50 c-22 28 -43 51
-46 52 -4 1 -25 -10 -47 -25z"/>
<path d="M7875 6192 c-19 -26 -34 -49 -34 -52 0 -8 111 -162 114 -158 2 2 -7
43 -21 92 -13 49 -21 93 -18 98 13 20 23 3 44 -79 17 -63 26 -81 31 -67 10 25
11 194 2 194 -5 0 -25 4 -46 9 -37 9 -39 8 -72 -37z"/>
<path d="M6426 6080 c-3 -14 -17 -92 -31 -175 -14 -82 -29 -166 -35 -185 -20
-68 -13 -65 68 29 l59 68 -24 134 c-27 156 -29 162 -37 129z"/>
<path d="M5515 5999 c-11 -28 -20 -52 -20 -53 0 -1 21 -26 47 -55 l47 -52 103
42 c57 23 107 46 113 51 5 5 -43 5 -109 2 -96 -6 -120 -5 -127 7 -12 20 18 27
118 28 45 1 84 5 87 9 4 7 -206 72 -232 72 -4 0 -16 -23 -27 -51z"/>
<path d="M6787 5885 c-48 -53 -87 -100 -87 -106 0 -25 23 -100 33 -106 6 -3
48 -14 94 -23 l83 -17 36 48 35 48 -44 123 c-25 67 -49 124 -54 125 -5 2 -48
-40 -96 -92z"/>
<path d="M8300 5977 c3 -3 185 -40 405 -82 220 -42 402 -79 404 -81 21 -20
-92 -6 -441 55 -226 40 -412 70 -414 68 -5 -4 806 -318 821 -317 12 0 168 137
173 151 8 20 -51 189 -67 193 -23 7 -887 19 -881 13z"/>
<path d="M4650 5963 c0 -17 31 -267 33 -269 1 -1 58 -30 127 -64 69 -34 127
-64 130 -66 2 -3 -46 -55 -107 -117 l-111 -112 22 -62 c11 -34 26 -66 31 -72
6 -5 76 -24 156 -42 l147 -33 51 33 c28 18 51 40 51 50 -1 9 -20 82 -44 164
-35 122 -40 147 -27 147 9 0 82 -9 162 -21 l146 -21 52 34 c33 22 51 40 50 53
0 11 -19 92 -43 180 l-43 159 -39 18 c-21 10 -44 17 -51 15 -7 -1 -75 -62
-152 -135 l-139 -132 -45 82 c-25 46 -54 101 -65 124 l-21 41 -113 22 c-62 12
-123 24 -135 26 -13 3 -23 2 -23 -2z"/>
<path d="M7507 5909 c-27 -4 -50 -9 -51 -11 -6 -8 -36 -112 -36 -123 0 -12
178 -160 185 -153 2 2 -23 46 -56 98 -32 51 -59 100 -59 106 0 37 26 15 81
-71 34 -53 63 -94 65 -92 7 6 -63 251 -72 253 -5 1 -31 -2 -57 -7z"/>
<path d="M3604 5867 c-22 -23 -52 -57 -69 -74 l-29 -33 24 -42 c13 -24 87
-155 165 -293 78 -137 168 -296 200 -353 32 -56 59 -101 61 -99 2 2 -59 178
-136 392 -77 213 -138 391 -135 393 3 3 10 1 15 -4 8 -8 171 -426 273 -704 17
-47 33 -78 35 -70 1 9 -29 201 -68 427 -38 226 -70 415 -70 421 0 6 -33 20
-72 32 -40 13 -92 29 -114 36 l-42 12 -38 -41z"/>
<path d="M8252 5859 c-92 -6 -119 -13 -85 -22 10 -3 48 -13 86 -23 63 -16 78
-26 59 -38 -5 -3 -49 5 -98 18 -49 14 -90 23 -92 21 -4 -3 112 -87 143 -103
17 -8 29 -4 67 24 l46 34 -10 43 c-5 23 -12 44 -16 47 -4 3 -49 3 -100 -1z"/>
<path d="M5539 5695 l47 -147 103 -39 c57 -22 105 -38 107 -37 3 3 -257 323
-285 352 -15 15 -10 -11 28 -129z"/>
<path d="M7261 5723 c-87 -98 -102 -120 -98 -142 3 -14 11 -63 18 -108 7 -46
15 -83 18 -83 7 0 173 442 168 446 -2 2 -49 -49 -106 -113z"/>
<path d="M6004 5775 c-3 -8 38 -133 91 -277 53 -145 115 -315 137 -379 l39
-116 154 -42 c85 -24 159 -40 164 -36 6 3 11 16 11 29 0 16 -35 53 -130 137
l-129 114 35 64 c19 35 33 65 31 68 -3 2 -26 -1 -51 -8 -26 -6 -49 -9 -52 -7
-3 3 3 22 12 41 18 37 15 61 -17 146 l-10 25 -30 -37 c-17 -20 -34 -37 -39
-37 -4 0 -50 74 -101 165 -51 91 -96 165 -101 165 -5 0 -11 -7 -14 -15z"/>
<path d="M6430 5688 c-46 -57 -88 -108 -92 -115 -10 -12 20 -123 33 -123 6 0
208 233 222 257 7 11 -57 82 -73 83 -3 0 -43 -46 -90 -102z"/>
<path d="M5946 5613 c3 -87 6 -175 8 -195 5 -43 4 -43 -54 -23 -24 8 -44 14
-46 12 -2 -1 4 -33 12 -70 15 -64 18 -69 57 -89 l42 -21 -60 -20 c-66 -22 -68
-19 27 -77 l47 -29 -25 -78 c-13 -43 -36 -118 -51 -166 l-26 -88 20 -21 21
-20 74 78 c41 44 92 98 113 122 l38 42 -51 238 c-28 130 -65 310 -83 400 -28
136 -36 162 -50 162 -17 0 -18 -12 -13 -157z"/>
<path d="M3038 5697 l-48 -43 110 -252 c61 -139 110 -257 110 -263 0 -6 -6 -9
-12 -6 -7 3 -142 60 -301 126 -158 67 -293 121 -301 121 -7 0 -57 -18 -112
-41 -54 -22 -110 -45 -123 -50 -13 -5 -22 -12 -19 -14 6 -6 2436 -605 2455
-605 10 0 5 13 -17 45 -17 25 -33 45 -35 45 -2 0 -248 57 -547 126 -299 69
-581 134 -628 144 -131 29 -292 69 -296 73 -3 3 -34 515 -34 565 0 12 -92 58
-134 67 -15 3 -36 -9 -68 -38z m94 -73 c57 -214 123 -506 117 -510 -5 -3 -11
1 -14 8 -7 19 -135 524 -135 532 0 20 26 -4 32 -30z"/>
<path d="M6524 5578 c-60 -72 -113 -138 -117 -145 -6 -10 5 -13 50 -13 l58 0
84 78 85 79 -18 66 c-10 37 -22 67 -26 67 -4 0 -56 -59 -116 -132z"/>
<path d="M8275 5690 c-49 -9 -145 -28 -213 -40 -67 -13 -120 -25 -117 -28 2
-3 89 -17 191 -31 103 -14 189 -31 191 -36 2 -6 -3 -19 -11 -30 -13 -19 -17
-19 -187 3 -96 13 -187 25 -204 28 -48 10 -23 -7 163 -105 l174 -92 41 35 c23
20 64 55 90 79 l49 43 -29 94 c-16 51 -33 95 -38 96 -6 1 -50 -6 -100 -16z"/>
<path d="M7055 5626 c-33 -8 -50 -17 -49 -26 2 -28 66 -315 73 -328 5 -8 21 2
50 32 l44 45 -28 138 c-15 76 -30 141 -34 144 -3 3 -28 1 -56 -5z"/>
<path d="M6916 5581 l-49 -49 39 -113 c38 -111 40 -113 88 -141 27 -16 50 -28
51 -26 4 4 -70 367 -76 373 -3 2 -27 -17 -53 -44z"/>
<path d="M6625 5459 c-85 -84 -163 -158 -172 -165 -12 -8 -15 -16 -8 -22 6 -5
109 -35 230 -66 121 -31 230 -59 243 -62 14 -4 22 -2 22 6 0 7 -27 94 -60 194
-32 100 -65 200 -72 224 -7 23 -16 42 -21 42 -4 0 -77 -68 -162 -151z"/>
<path d="M5534 5504 c-4 -11 -13 -34 -20 -51 -7 -18 -9 -35 -5 -37 26 -16 341
-112 341 -104 0 6 -7 34 -16 63 l-15 54 -127 42 c-70 23 -133 44 -139 47 -7 2
-16 -4 -19 -14z"/>
<path d="M5121 5493 c0 -5 19 -64 42 -133 l42 -125 56 -14 56 -14 41 45 c23
25 51 56 62 70 l20 26 -25 54 -25 54 -124 22 c-137 24 -146 25 -145 15z"/>
<path d="M7810 5486 c0 -2 41 -29 90 -60 50 -32 90 -61 90 -66 0 -25 -28 -15
-116 40 -53 34 -98 59 -101 56 -4 -4 135 -186 142 -186 2 0 32 9 68 20 l66 20
7 56 c3 31 3 59 -2 63 -9 8 -214 61 -234 61 -5 0 -10 -2 -10 -4z"/>
<path d="M7360 5316 c-91 -57 -168 -102 -172 -100 -4 3 -10 25 -14 49 -3 25
-9 45 -13 45 -4 0 -28 -22 -54 -48 -41 -42 -47 -53 -47 -90 0 -23 -4 -42 -8
-42 -4 0 -23 16 -42 35 -19 19 -38 35 -42 35 -4 0 -8 -33 -8 -74 l0 -74 -112
-26 c-62 -14 -140 -32 -172 -39 -52 -12 -61 -17 -67 -41 -9 -33 -22 -27 165
-70 l149 -34 136 122 c75 66 208 184 296 260 88 77 166 145 174 152 8 8 10 17
4 27 -7 13 -36 -1 -173 -87z"/>
<path d="M5476 5364 c4 -14 12 -44 19 -67 l12 -42 116 -23 116 -23 53 30 c33
19 47 32 38 35 -154 55 -337 116 -347 116 -9 0 -11 -8 -7 -26z"/>
<path d="M7465 5272 c-44 -53 -147 -175 -230 -270 -82 -96 -165 -192 -183
-213 l-33 -39 39 -152 c35 -137 41 -153 63 -159 16 -5 18 -7 7 -8 -10 -1 -18
-6 -18 -12 0 -5 21 -77 47 -160 l47 -149 86 -26 c47 -14 221 -70 388 -126 275
-91 332 -104 332 -81 0 4 -79 49 -175 98 -96 50 -175 93 -175 96 0 4 16 19 35
33 19 15 35 31 35 35 0 4 -30 16 -67 26 l-67 18 -39 -22 -40 -23 6 23 c3 13 9
41 13 62 l7 39 -69 -38 -69 -37 -90 94 c-49 51 -106 110 -126 131 -20 21 -35
39 -33 40 1 2 16 71 34 153 41 203 33 185 93 186 29 1 62 4 75 7 23 7 23 7
-12 41 -20 19 -36 39 -36 43 0 4 19 8 43 9 38 1 47 7 91 55 l48 53 -39 7 c-74
12 -75 9 30 182 53 88 97 164 97 171 0 32 -44 -1 -115 -87z"/>
<path d="M4212 5271 c-34 -38 -62 -75 -62 -81 0 -12 281 -332 287 -326 2 2
-28 80 -66 172 -39 93 -71 175 -71 182 0 6 11 12 24 12 13 0 28 -6 33 -12 6
-7 43 -89 83 -183 40 -93 75 -172 78 -175 7 -8 -9 372 -18 395 -6 15 -32 27
-106 49 -55 16 -104 31 -109 33 -6 2 -39 -28 -73 -66z"/>
<path d="M3637 5263 c-58 -4 -59 -4 -77 -46 -41 -92 -46 -84 100 -158 71 -36
130 -63 130 -59 0 3 -38 43 -85 90 -47 47 -85 88 -85 93 0 4 7 10 16 14 11 4
44 -23 110 -88 51 -51 95 -91 98 -88 2 2 -22 59 -54 127 -45 94 -63 122 -77
120 -10 -1 -44 -3 -76 -5z"/>
<path d="M2341 5233 c91 -115 174 -203 192 -203 22 0 203 -15 302 -24 28 -3
115 -10 195 -16 80 -7 152 -14 160 -17 8 -3 33 -6 55 -7 35 -1 726 -176 1235
-313 217 -58 237 -60 285 -35 l39 19 -1231 307 c-676 168 -1233 306 -1238 306
-4 0 -1 -8 6 -17z"/>
<path d="M5400 5218 c0 -7 25 -115 56 -241 l56 -230 186 186 c103 103 184 188
181 191 -5 5 -455 106 -471 106 -5 0 -8 -5 -8 -12z"/>
<path d="M7925 5129 c-71 -27 -167 -61 -213 -76 -45 -14 -81 -27 -79 -29 2 -2
47 -12 101 -22 l98 -19 114 94 c98 81 123 104 112 103 -2 -1 -61 -23 -133 -51z"/>
<path d="M7986 5068 l-106 -113 0 -61 c0 -38 5 -65 13 -72 6 -5 79 -26 160
-45 82 -19 151 -38 154 -41 3 -3 -40 -62 -96 -133 -56 -70 -99 -134 -96 -141
3 -8 5 -36 5 -63 0 -31 5 -51 13 -54 6 -2 86 -24 177 -48 163 -44 165 -44 190
-26 69 51 67 28 15 221 -25 95 -49 181 -52 191 -5 18 3 19 138 16 l143 -3 88
99 c48 55 88 102 88 105 0 3 -57 29 -126 58 l-125 53 -122 -79 c-80 -52 -124
-76 -129 -68 -3 6 -22 71 -41 144 -19 73 -37 136 -40 139 -5 4 -119 32 -139
33 -3 0 -54 -51 -112 -112z"/>
<path d="M4796 5162 c5 -5 50 -42 99 -82 50 -41 123 -102 163 -138 39 -35 72
-60 72 -55 0 17 -51 161 -63 175 -7 8 -70 36 -140 62 -133 48 -148 52 -131 38z"/>
<path d="M4052 5119 l-33 -29 62 -91 c34 -49 63 -88 65 -86 2 2 -7 41 -21 87
-28 94 -29 100 -15 100 13 0 23 -23 52 -120 l22 -75 7 60 c4 33 7 79 8 103 1
42 0 43 -45 62 -59 26 -63 25 -102 -11z"/>
<path d="M5298 4972 c37 -100 70 -178 73 -174 4 4 18 27 31 52 l26 45 -27 113
-26 112 -35 10 c-19 6 -51 13 -72 16 l-36 6 66 -180z"/>
<path d="M5156 5104 c-22 -8 -42 -16 -44 -19 -3 -2 17 -65 44 -139 l49 -135
58 -16 c32 -9 61 -14 64 -11 8 8 -111 336 -122 335 -5 0 -28 -7 -49 -15z"/>
<path d="M6500 5117 c0 -3 31 -28 69 -56 l70 -52 68 11 c128 21 126 18 37 54
-56 23 -106 35 -162 40 -45 4 -82 5 -82 3z"/>
<path d="M4601 5085 c-28 -13 -51 -30 -51 -36 0 -7 17 -65 38 -128 l37 -116 5
115 c3 63 8 114 13 113 4 -2 12 -3 18 -3 7 0 10 -38 7 -120 -1 -65 0 -116 4
-112 5 5 88 210 88 217 0 1 -24 22 -54 47 l-53 47 -52 -24z"/>
<path d="M7490 4945 c-31 -32 -40 -46 -29 -50 8 -3 88 -18 177 -33 l164 -28 8
21 c4 12 10 37 12 56 l3 34 -125 22 c-69 12 -134 22 -145 22 -12 1 -40 -19
-65 -44z"/>
<path d="M5836 4918 c-43 -33 -85 -77 -112 -117 -24 -36 -42 -66 -40 -68 2 -2
38 12 81 30 68 29 80 38 91 68 6 19 21 58 33 87 11 28 19 52 18 52 -2 0 -34
-24 -71 -52z"/>
<path d="M6197 4946 c-9 -14 -17 -30 -17 -37 0 -13 77 -255 85 -269 5 -8 78 9
90 22 6 6 -61 266 -74 287 -4 6 -21 13 -37 17 -25 5 -33 1 -47 -20z"/>
<path d="M2952 4765 l-232 -185 21 -57 c12 -32 24 -61 28 -64 3 -4 40 -9 82
-12 l76 -6 37 62 c21 34 88 147 151 250 63 104 110 187 105 185 -5 -2 -53 -53
-107 -114 -232 -261 -268 -299 -288 -302 -18 -4 -18 -2 6 25 14 15 100 110
192 210 150 164 175 193 164 193 -2 0 -108 -83 -235 -185z"/>
<path d="M6351 4855 c-1 -29 27 -109 39 -116 20 -11 286 -79 308 -79 9 0 42
16 72 36 l55 34 -75 -1 c-107 -1 -342 66 -376 108 -13 15 -23 24 -23 18z"/>
<path d="M7450 4854 c0 -3 12 -25 26 -49 24 -42 29 -45 124 -74 54 -17 107
-31 117 -31 24 0 110 87 98 99 -6 4 -85 20 -177 35 -179 28 -188 29 -188 20z"/>
<path d="M6161 4773 c-16 -34 -59 -86 -132 -159 -88 -88 -118 -111 -152 -120
l-42 -11 40 -11 c95 -26 80 -33 209 97 l119 119 -9 68 -9 68 -24 -51z"/>
<path d="M3435 4735 c-4 -36 -6 -67 -4 -69 2 -2 33 -22 68 -45 l63 -40 102 76
c55 43 103 78 105 80 2 2 2 6 -1 9 -3 3 -60 -12 -127 -32 -94 -29 -124 -35
-133 -26 -18 18 -3 27 112 62 58 17 109 36 115 41 5 5 -51 9 -142 9 l-151 0
-7 -65z"/>
<path d="M6792 4682 l-101 -109 37 -36 38 -37 107 108 c98 98 108 111 101 136
-7 28 -31 46 -62 46 -12 0 -59 -42 -120 -108z"/>
<path d="M5435 4727 c-9 -31 -18 -57 -20 -57 -2 0 -13 15 -25 34 -18 30 -30
37 -88 50 -36 8 -68 13 -70 11 -2 -2 3 -24 11 -49 l16 -46 -200 0 c-166 0
-199 -2 -199 -14 0 -19 -4 -18 305 -71 148 -26 323 -57 389 -71 l118 -24 67
59 c36 33 91 85 121 115 l54 56 -20 20 -20 20 -169 -54 c-124 -40 -172 -52
-177 -43 -4 7 -22 37 -42 67 l-34 54 -17 -57z"/>
<path d="M7866 4741 l-38 -39 27 -84 c15 -45 30 -86 34 -89 3 -4 32 -9 64 -11
l57 -5 86 104 c47 58 84 106 82 108 -6 6 -232 55 -253 55 -12 0 -38 -18 -59
-39z"/>
<path d="M7344 4723 c4 -16 31 -116 61 -223 30 -107 57 -208 61 -223 3 -15 10
-27 13 -25 4 2 48 48 97 102 49 55 122 136 161 180 40 44 69 83 65 87 -8 8
-431 129 -451 129 -9 0 -11 -8 -7 -27z"/>
<path d="M3514 4499 c-209 -133 -381 -243 -383 -245 -2 -2 7 -47 20 -101 l24
-97 100 -18 c55 -10 110 -17 121 -15 15 1 100 104 281 338 143 185 264 342
268 349 15 25 -18 -3 -260 -215 -355 -311 -385 -336 -397 -329 -7 5 -1 16 18
32 16 13 121 108 234 211 113 102 223 202 245 222 102 92 120 108 114 109 -4
0 -177 -108 -385 -241z"/>
<path d="M3988 4654 c-49 -24 -88 -47 -88 -51 0 -4 7 -27 16 -50 l17 -43 53 0
c30 0 54 -4 54 -9 0 -5 -18 -16 -41 -25 -35 -14 -40 -20 -35 -39 3 -12 13 -55
23 -94 11 -47 22 -75 33 -78 8 -3 61 -13 117 -23 l102 -18 106 174 c58 96 104
176 102 178 -2 2 -74 -53 -159 -121 -148 -119 -157 -125 -182 -114 -14 7 -26
15 -26 19 0 3 68 62 151 129 82 68 148 125 146 127 -2 3 -75 -23 -162 -56 -87
-33 -159 -59 -162 -57 -2 2 15 42 37 89 22 47 40 90 40 94 0 5 -33 -24 -74
-65 -49 -49 -76 -69 -81 -61 -5 7 16 36 56 76 35 35 59 64 54 63 -6 0 -49 -20
-97 -45z"/>
<path d="M6377 4669 c7 -27 25 -34 167 -64 117 -25 120 -25 138 -7 18 18 15
19 -134 55 -84 21 -158 37 -165 37 -6 0 -9 -9 -6 -21z"/>
<path d="M6110 4540 c-109 -117 -111 -119 -85 -126 25 -6 36 3 121 92 70 74
93 106 94 127 0 15 -4 27 -9 27 -5 0 -59 -54 -121 -120z"/>
<path d="M6305 4618 c-14 -43 -45 -151 -45 -158 0 -7 179 36 188 45 4 3 -91
93 -119 113 -16 11 -20 11 -24 0z"/>
<path d="M4847 4606 c-6 -15 64 -57 263 -156 l85 -43 -39 -33 c-22 -19 -37
-36 -35 -38 2 -1 13 -8 24 -15 18 -11 17 -12 -10 -6 -16 3 -38 8 -47 11 -11 3
-51 -27 -122 -92 -58 -53 -106 -100 -106 -105 0 -5 15 -26 34 -46 l34 -37 107
99 c59 55 121 112 138 128 23 21 38 27 56 24 16 -3 39 3 59 15 18 11 35 19 37
17 2 -3 -1 -26 -7 -52 -5 -27 -8 -51 -5 -53 5 -5 90 39 116 59 10 9 20 3 44
-23 16 -19 72 -79 124 -133 l95 -97 -27 -128 c-15 -70 -31 -148 -37 -174 l-10
-48 -74 0 c-41 0 -74 -4 -74 -8 0 -4 16 -23 35 -42 19 -19 35 -37 35 -40 0 -3
-18 -6 -41 -7 -35 -1 -48 -8 -90 -49 -27 -27 -49 -51 -49 -55 0 -4 23 -10 50
-14 28 -4 50 -10 50 -14 0 -3 -45 -80 -100 -171 -83 -138 -97 -166 -84 -173
11 -6 20 -4 28 4 7 8 89 104 181 214 93 110 201 236 240 280 38 44 78 89 87
100 16 19 15 27 -13 140 -53 211 -47 197 -72 190 -20 -6 -21 -5 -5 8 16 13 14
24 -30 167 l-47 153 -55 18 c-30 9 -199 64 -375 122 -176 58 -330 108 -341
111 -14 4 -24 2 -27 -8z"/>
<path d="M7225 4563 c-3 -32 -8 -70 -11 -84 -4 -20 7 -42 52 -98 31 -40 58
-70 61 -68 2 3 -1 42 -8 87 -8 57 -22 102 -46 149 -19 36 -36 68 -38 69 -2 2
-6 -23 -10 -55z"/>
<path d="M6882 4567 l-42 -43 30 -109 c64 -232 53 -207 116 -238 31 -15 58
-26 60 -24 2 2 -10 23 -27 47 -41 56 -116 338 -99 371 22 40 4 39 -38 -4z"/>
<path d="M4471 4486 l-94 -94 33 -46 c19 -25 38 -46 45 -46 11 0 127 29 131
33 1 1 7 40 13 87 6 47 14 101 17 120 8 49 -5 32 -62 -78 -44 -87 -66 -114
-81 -98 -3 3 17 52 45 108 28 56 50 103 49 105 -2 1 -45 -40 -96 -91z"/>
<path d="M6607 4508 l-79 -21 68 -68 c38 -38 71 -69 74 -69 5 0 40 152 40 173
0 10 -14 8 -103 -15z"/>
<path d="M6776 4491 c-18 -19 -17 -24 24 -155 34 -108 47 -135 64 -140 11 -3
22 -3 24 -1 4 4 -76 281 -87 303 -6 10 -12 8 -25 -7z"/>
<path d="M7698 4420 c-77 -89 -78 -90 -78 -146 0 -30 4 -54 9 -52 16 5 281
241 281 250 0 4 -12 10 -27 14 -16 3 -44 10 -63 15 -19 5 -37 9 -40 9 -3 0
-40 -41 -82 -90z"/>
<path d="M5696 4445 c-15 -23 -15 -28 -1 -55 9 -17 18 -30 20 -30 3 0 67 -14
142 -30 104 -24 138 -28 144 -19 9 15 22 80 17 85 -7 6 -269 74 -288 74 -10 0
-25 -11 -34 -25z"/>
<path d="M6431 4424 c0 -27 3 -66 7 -86 l7 -37 39 74 c22 41 37 77 35 79 -3 3
-24 8 -47 12 l-42 7 1 -49z"/>
<path d="M9394 4407 c-22 -28 -143 -182 -268 -342 -126 -159 -234 -297 -240
-305 -19 -25 60 41 359 299 254 220 326 276 313 242 -1 -4 -93 -88 -203 -186
-376 -334 -425 -379 -409 -374 6 2 180 110 387 239 290 181 377 240 377 255 0
20 -36 175 -42 180 -3 2 -219 45 -228 45 -3 0 -23 -24 -46 -53z"/>
<path d="M6252 4397 l-32 -33 76 -42 c43 -23 79 -41 80 -39 3 3 -72 125 -85
140 -4 4 -22 -8 -39 -26z"/>
<path d="M7783 4314 c-71 -63 -129 -119 -131 -123 -2 -7 85 -31 114 -31 8 0
60 41 117 92 56 51 104 93 106 94 6 5 -60 84 -70 84 -5 0 -66 -52 -136 -116z"/>
<path d="M6118 4371 c-42 -14 -80 -29 -84 -34 -7 -7 103 -127 117 -127 7 0 54
179 48 184 -2 2 -39 -8 -81 -23z"/>
<path d="M6563 4307 c-40 -23 -73 -46 -73 -50 0 -4 24 -6 53 -3 28 2 67 5 85
5 33 1 33 2 27 34 -13 58 -15 59 -92 14z"/>
<path d="M4773 4291 c-111 -20 -204 -39 -207 -42 -6 -6 243 -59 277 -59 15 0
177 125 177 137 0 7 -53 -1 -247 -36z"/>
<path d="M5823 4282 c28 -38 43 -78 76 -200 38 -145 39 -155 25 -188 -19 -45
-9 -41 42 16 l41 45 -29 105 c-63 230 -52 206 -118 240 -33 16 -62 30 -66 30
-3 0 10 -21 29 -48z"/>
<path d="M7907 4229 c-48 -39 -86 -73 -84 -75 6 -6 450 68 460 76 4 4 -53 19
-129 34 -75 15 -141 29 -148 32 -6 2 -51 -28 -99 -67z"/>
<path d="M5960 4277 c0 -13 81 -299 87 -306 2 -3 12 4 23 15 20 20 20 20 -23
153 -34 108 -47 135 -65 142 -15 6 -22 5 -22 -4z"/>
<path d="M5072 4140 c-82 -75 -137 -132 -130 -135 7 -2 39 -11 70 -19 l57 -14
76 89 76 88 -3 61 -3 60 -143 -130z"/>
<path d="M6670 4180 c-12 -50 -21 -93 -18 -95 6 -7 168 45 168 53 0 4 -29 36
-64 71 l-63 63 -23 -92z"/>
<path d="M8540 4155 c-36 -58 -77 -124 -92 -148 -44 -68 -59 -97 -51 -97 5 0
77 55 161 121 141 112 156 121 178 110 13 -6 24 -14 24 -19 0 -5 -66 -62 -147
-127 -82 -65 -150 -122 -151 -127 -2 -4 9 -3 25 3 155 59 296 110 299 106 2
-2 -14 -42 -36 -89 -22 -47 -40 -90 -40 -94 0 -5 33 24 74 65 49 49 76 69 81
61 5 -7 -16 -36 -56 -76 -35 -35 -60 -64 -56 -64 17 0 187 91 187 100 0 5 -7
28 -16 50 -16 39 -17 40 -64 40 -60 0 -72 14 -25 30 19 6 37 16 41 21 6 10
-23 154 -37 180 -6 11 -38 22 -101 33 -51 9 -102 19 -113 22 -17 4 -31 -13
-85 -101z"/>
<path d="M5197 4049 c-88 -99 -157 -182 -154 -185 2 -3 69 -23 148 -45 79 -22
182 -51 228 -65 47 -13 87 -22 89 -19 9 9 -135 495 -146 495 -4 0 -78 -82
-165 -181z"/>
<path d="M4420 4189 l-35 -29 28 -103 c15 -56 38 -141 51 -189 l25 -88 -143 0
-143 0 -74 -87 c-41 -49 -80 -95 -87 -104 -11 -15 1 -22 107 -68 66 -28 124
-51 130 -51 6 0 63 35 126 77 70 46 119 73 124 67 5 -5 26 -70 46 -144 20 -74
38 -136 40 -138 5 -5 147 -34 149 -30 1 2 48 54 104 116 l103 112 -3 67 -3 67
-157 36 c-87 20 -160 39 -164 43 -3 3 37 62 90 131 101 132 107 147 90 232 -5
29 -9 30 -173 72 -92 23 -174 42 -182 42 -8 -1 -30 -14 -49 -31z"/>
<path d="M6193 4183 c4 -20 10 -40 15 -45 7 -7 127 54 149 76 4 3 -33 6 -82 6
l-88 0 6 -37z"/>
<path d="M6489 4158 c12 -18 31 -50 43 -70 12 -21 27 -38 34 -38 13 0 54 46
54 60 0 7 -132 80 -145 80 -4 0 3 -15 14 -32z"/>
<path d="M8320 4171 c-56 -14 -65 -19 -68 -41 -2 -14 -9 -67 -16 -117 -7 -51
-10 -93 -7 -93 3 0 28 43 55 96 47 90 68 115 84 100 3 -4 -15 -47 -41 -95 -26
-49 -47 -94 -47 -102 0 -7 41 27 90 76 50 49 90 94 90 100 0 5 -17 29 -38 51
l-37 42 -65 -17z"/>
<path d="M5515 4155 c19 -117 28 -152 62 -217 l38 -73 9 83 c10 96 9 101 -64
182 -47 52 -49 54 -45 25z"/>
<path d="M6368 4107 c-21 -40 -38 -76 -38 -80 0 -7 72 -28 77 -23 2 2 3 42 1
90 l-3 86 -37 -73z"/>
<path d="M6844 4165 c-4 -9 -7 -33 -8 -53 l-1 -36 144 -39 145 -38 23 24 c22
21 23 26 12 53 -7 16 -14 30 -15 32 -1 2 -60 17 -131 33 -70 16 -136 32 -146
35 -10 3 -20 -1 -23 -11z"/>
<path d="M6152 4038 c-10 -46 -17 -86 -15 -89 3 -6 162 29 172 38 6 4 -121
133 -130 133 -4 0 -16 -37 -27 -82z"/>
<path d="M6698 3964 c-79 -87 -94 -110 -90 -131 4 -23 13 -17 125 96 67 66
119 122 117 124 -3 2 -17 7 -31 10 -22 6 -36 -6 -121 -99z"/>
<path d="M9820 3875 c-115 -188 -166 -271 -192 -308 -50 -73 4 -21 170 162
219 240 211 233 223 225 11 -6 -14 -38 -119 -149 -81 -86 -174 -186 -231 -249
-20 -21 -29 -35 -21 -31 16 9 164 123 352 272 l117 92 -21 61 c-11 34 -25 63
-32 65 -6 2 -43 6 -81 10 l-71 6 -94 -156z"/>
<path d="M6488 3997 c-42 -12 -79 -25 -83 -28 -6 -7 114 -119 127 -119 4 0 17
32 28 71 12 39 24 78 27 85 7 18 -6 17 -99 -9z"/>
<path d="M6762 3907 l-112 -112 0 -68 c0 -37 4 -67 8 -67 5 0 19 23 33 51 33
72 239 269 280 269 16 0 29 4 29 8 0 8 -86 32 -113 32 -7 0 -63 -51 -125 -113z"/>
<path d="M7050 3870 c-89 -86 -112 -112 -102 -122 18 -18 14 -32 -4 -17 -15
12 -30 0 -129 -105 l-112 -120 14 -60 c8 -34 46 -211 83 -394 38 -183 72 -337
75 -342 3 -6 13 -10 21 -10 13 0 14 15 10 93 -3 50 -8 139 -11 196 l-6 104 29
-6 c16 -3 41 -9 55 -12 l25 -7 -17 69 c-16 62 -21 70 -56 90 l-39 22 27 10
c16 6 30 11 32 11 2 0 16 5 31 10 l28 11 -68 40 c-45 28 -66 46 -62 55 3 8 27
85 52 172 l47 157 168 54 c93 30 170 53 173 50 2 -2 20 -30 41 -62 20 -32 39
-57 41 -54 2 2 12 27 22 56 l18 52 21 -38 c20 -36 27 -40 88 -52 36 -7 68 -11
71 -9 2 3 -3 24 -11 48 -8 23 -15 45 -15 48 0 2 90 1 200 -3 176 -6 200 -5
200 9 0 8 -4 17 -9 20 -5 3 -136 28 -292 55 -156 28 -331 59 -389 71 -58 11
-112 20 -120 19 -8 0 -67 -49 -130 -109z"/>
<path d="M4756 3868 c-47 -57 -86 -106 -86 -109 0 -6 233 -59 261 -59 8 0 32
18 53 39 l38 39 -27 84 c-15 45 -30 86 -34 89 -3 4 -32 10 -63 14 l-57 6 -85
-103z"/>
<path d="M5973 3867 c-106 -103 -107 -104 -97 -138 8 -27 16 -35 42 -40 31 -6
37 -2 138 104 l105 110 -33 34 c-17 18 -36 33 -40 33 -4 0 -56 -47 -115 -103z"/>
<path d="M6160 3875 c-10 -12 -10 -16 1 -20 16 -6 304 -75 313 -75 3 0 1 13
-5 28 -9 27 -16 30 -137 55 -147 31 -155 32 -172 12z"/>
<path d="M8075 3870 c-41 -18 -39 -21 15 -34 14 -3 557 -144 1208 -312 650
-168 1187 -304 1193 -302 15 5 -148 201 -174 210 -17 6 -483 53 -712 72 -35 3
-407 100 -960 251 -324 88 -504 135 -517 134 -7 0 -31 -9 -53 -19z"/>
<path d="M9167 3813 c-54 -41 -96 -77 -94 -80 3 -2 60 12 127 32 99 30 124 34
131 23 5 -7 9 -15 9 -18 0 -3 -55 -23 -123 -45 l-122 -40 145 -5 c80 -4 148
-4 152 -1 4 3 10 35 14 71 l6 65 -64 38 c-36 20 -69 37 -74 36 -5 0 -53 -34
-107 -76z"/>
<path d="M6523 3828 c-18 -6 -33 -15 -33 -21 0 -27 74 -283 84 -289 25 -16 66
-8 82 17 15 23 14 31 -27 165 -45 150 -44 148 -106 128z"/>
<path d="M6088 3785 c-32 -20 -58 -38 -58 -41 0 -2 26 -1 58 2 49 5 81 0 207
-35 130 -37 154 -47 178 -74 31 -36 32 -33 11 44 l-16 57 -141 36 c-78 20
-151 39 -162 42 -13 3 -41 -9 -77 -31z"/>
<path d="M8036 3808 c37 -67 72 -89 159 -105 11 -2 187 -44 390 -93 204 -49
449 -108 545 -131 96 -22 234 -55 305 -73 l130 -31 12 -230 c6 -127 12 -257
12 -290 l1 -60 75 -34 75 -33 48 43 c26 24 46 51 45 59 -1 8 -49 125 -107 260
-58 135 -101 246 -96 248 4 2 139 -53 300 -123 161 -69 299 -125 308 -125 22
0 252 92 252 100 0 4 -215 61 -477 128 -263 67 -811 207 -1218 312 -407 104
-746 190 -753 190 -8 0 -10 -5 -6 -12z m1572 -480 c43 -156 124 -509 118 -515
-13 -14 -23 17 -80 265 -32 136 -60 255 -63 265 -2 9 0 17 6 17 5 0 14 -15 19
-32z"/>
<path d="M5078 3745 c-23 -26 -44 -50 -46 -55 -2 -4 30 -13 70 -20 40 -6 123
-20 183 -30 61 -10 112 -16 114 -14 6 6 -31 73 -50 89 -8 8 -55 26 -105 40
-49 14 -96 28 -106 31 -10 3 -32 -12 -60 -41z"/>
<path d="M7095 3734 c-32 -13 -65 -30 -71 -37 -12 -12 -76 -159 -71 -163 8 -9
150 113 178 153 62 86 62 87 -36 47z"/>
<path d="M7155 3556 l-189 -183 233 -57 c128 -31 239 -56 246 -54 8 2 -3 69
-40 235 -28 128 -53 234 -56 237 -2 2 -89 -78 -194 -178z"/>
<path d="M7530 3702 c0 -4 25 -81 54 -172 59 -182 55 -177 131 -146 l34 15
-47 137 -47 137 -62 18 c-35 10 -63 14 -63 11z"/>
<path d="M7470 3659 c-11 -19 -23 -44 -26 -56 -7 -27 25 -208 40 -229 11 -15
123 -51 131 -42 5 5 -111 347 -120 356 -2 2 -13 -11 -25 -29z"/>
<path d="M8122 3586 l-43 -109 38 -39 c56 -58 65 -61 120 -37 26 11 49 22 51
23 4 4 -66 247 -73 254 -3 3 -5 -24 -5 -59 0 -95 -11 -170 -24 -166 -7 2 -13
49 -16 123 l-5 119 -43 -109z"/>
<path d="M5034 3605 c-3 -25 -4 -51 -1 -58 3 -8 49 -20 128 -31 68 -10 129
-21 135 -23 6 -2 32 18 57 44 44 46 45 48 24 55 -21 7 -311 58 -328 58 -4 0
-11 -20 -15 -45z"/>
<path d="M5830 3550 c-47 -44 -183 -164 -302 -267 -119 -104 -217 -193 -217
-200 -2 -30 29 -17 179 77 88 55 165 98 169 95 5 -2 12 -25 15 -50 l7 -45 55
47 c52 45 54 49 54 97 l0 50 43 -42 c23 -23 46 -42 49 -42 4 0 8 35 10 77 l3
77 160 38 c88 21 165 39 172 40 15 4 273 -220 273 -236 0 -6 -14 -35 -30 -65
-17 -30 -30 -58 -30 -62 0 -4 23 -1 52 7 29 7 54 11 56 9 3 -2 -5 -20 -16 -39
l-21 -35 21 -63 c11 -35 23 -65 25 -68 3 -3 20 13 38 35 19 22 36 37 38 35 2
-3 46 -80 98 -172 51 -93 97 -168 101 -168 25 0 9 57 -95 342 -63 172 -125
344 -138 382 l-24 69 -135 37 c-74 20 -145 40 -158 44 -17 6 -24 3 -31 -16
-10 -23 -10 -23 -10 -1 -1 12 -9 24 -18 27 -39 11 -285 66 -296 66 -7 -1 -50
-37 -97 -80z"/>
<path d="M8317 3518 c3 -62 8 -156 12 -208 l6 -95 110 -37 110 -36 67 71 c38
40 68 75 68 78 0 3 -50 63 -111 135 -149 172 -180 206 -184 202 -2 -1 28 -77
66 -168 89 -211 85 -197 54 -203 -34 -6 -37 0 -120 198 -37 88 -70 164 -75
168 -4 5 -5 -42 -3 -105z"/>
<path d="M7730 3596 c0 -10 51 -180 56 -185 6 -7 267 -111 271 -108 2 2 -43
44 -99 93 -57 48 -131 115 -165 148 -35 32 -63 56 -63 52z"/>
<path d="M8645 3520 c-3 -30 -5 -77 -3 -103 3 -47 4 -49 51 -69 48 -21 48 -21
74 -2 50 38 50 44 -12 137 -32 48 -60 86 -61 84 -2 -2 7 -42 20 -90 13 -48 20
-90 16 -92 -13 -8 -26 18 -45 90 -26 101 -32 108 -40 45z"/>
<path d="M8824 3493 c5 -18 136 -828 136 -844 0 -4 51 -24 112 -43 l113 -36
56 56 c96 95 108 49 -131 479 -193 347 -246 437 -226 380 4 -11 41 -114 81
-230 40 -115 99 -281 129 -368 59 -168 65 -190 42 -167 -15 15 -43 88 -212
547 -49 134 -93 243 -97 243 -5 0 -6 -8 -3 -17z"/>
<path d="M4910 3410 c-58 -50 -109 -96 -115 -101 -11 -11 -8 -10 175 61 69 27
151 56 183 66 31 10 57 20 57 24 0 5 -65 19 -170 36 -20 3 -46 -14 -130 -86z"/>
<path d="M9050 3473 c0 -5 38 -46 85 -93 46 -46 81 -88 79 -92 -14 -22 -48 0
-122 76 -97 101 -108 108 -89 64 50 -116 90 -204 97 -211 4 -5 42 -5 85 0 l77
8 24 59 c13 33 21 63 17 67 -10 8 -241 129 -248 129 -3 0 -5 -3 -5 -7z"/>
<path d="M6165 3465 c-5 -2 -32 -6 -59 -10 -26 -4 -44 -10 -40 -14 30 -27 165
-69 232 -73 39 -2 72 -1 72 2 -1 3 -30 26 -65 53 -61 44 -99 56 -140 42z"/>
<path d="M5930 3343 c0 -9 140 -466 143 -470 4 -3 64 52 215 194 79 75 139
139 135 144 -4 4 -109 35 -233 68 -124 34 -233 64 -242 67 -10 3 -18 2 -18 -3z"/>
<path d="M7718 3318 c-27 -16 -48 -35 -48 -41 0 -7 18 -79 39 -162 22 -82 38
-152 35 -154 -2 -3 -74 8 -159 23 l-156 27 -54 -33 c-30 -18 -55 -38 -55 -45
0 -7 18 -89 41 -182 l40 -169 48 -20 48 -20 124 116 c68 63 134 124 145 134
l22 19 65 -128 65 -128 128 -28 c70 -15 129 -25 132 -23 8 9 -20 261 -31 272
-7 7 -65 41 -131 75 l-118 64 113 106 113 107 -18 64 c-9 35 -20 68 -24 74 -7
10 -278 85 -304 83 -7 0 -34 -14 -60 -31z"/>
<path d="M7060 3260 c-29 -15 -49 -30 -43 -33 17 -11 337 -127 349 -127 9 0 7
18 -5 67 l-17 68 -116 26 -116 25 -52 -26z"/>
<path d="M7471 3214 c-34 -37 -61 -70 -61 -74 0 -13 40 -99 49 -104 16 -10
252 -58 258 -52 4 4 -63 256 -70 261 -5 4 -101 35 -108 35 -4 0 -35 -30 -68
-66z"/>
<path d="M5824 3223 c3 -10 15 -70 26 -133 12 -63 26 -141 32 -172 5 -32 13
-58 17 -58 4 0 28 21 54 48 l46 47 -36 113 c-36 111 -37 112 -85 142 -56 35
-61 36 -54 13z"/>
<path d="M5740 3185 l-44 -44 18 -93 c9 -51 22 -115 28 -142 l11 -48 51 7 c28
3 52 8 54 10 5 5 -58 326 -67 343 -5 8 -21 -2 -51 -33z"/>
<path d="M4880 3197 l-65 -22 -7 -55 c-4 -30 -4 -58 0 -61 10 -9 232 -62 238
-57 2 3 -36 31 -86 62 -49 32 -90 62 -90 67 0 21 41 6 124 -46 49 -31 91 -54
93 -51 4 4 -121 171 -135 180 -4 2 -37 -5 -72 -17z"/>
<path d="M7000 3178 c0 -22 25 -97 35 -106 11 -10 267 -104 270 -100 8 11 37
99 33 103 -6 6 -317 115 -329 115 -5 0 -9 -6 -9 -12z"/>
<path d="M4509 3049 l-87 -79 28 -91 c16 -50 31 -93 33 -96 5 -4 375 62 417
76 24 7 24 8 -10 14 -19 3 -105 16 -190 28 -85 12 -159 25 -163 29 -4 4 0 17
10 29 l18 23 160 -21 c88 -12 178 -24 200 -27 27 -4 37 -3 30 4 -9 9 -352 193
-358 192 -1 -1 -41 -37 -88 -81z"/>
<path d="M5590 2913 c-41 -104 -80 -204 -87 -223 -11 -29 5 -16 92 75 60 64
105 118 105 130 0 39 -24 205 -31 205 -3 0 -39 -84 -79 -187z"/>
<path d="M5198 3082 c-30 -3 -46 -13 -89 -60 -48 -52 -286 -301 -614 -642
-258 -268 -379 -390 -387 -390 -4 0 -118 58 -253 130 -135 72 -250 130 -256
130 -6 0 -38 -21 -71 -46 -56 -44 -60 -49 -53 -78 3 -17 9 -46 12 -64 4 -22
12 -34 27 -37 29 -6 499 -65 519 -65 10 0 17 -4 17 -10 0 -5 -69 -61 -152
-123 -84 -62 -203 -150 -264 -195 l-111 -82 -17 -113 c-9 -61 -19 -125 -22
-142 -4 -24 91 66 511 490 718 723 1269 1285 1273 1295 2 5 -5 8 -15 7 -10 -1
-35 -3 -55 -5z m-1508 -978 c153 -48 219 -68 314 -96 43 -13 77 -27 75 -33 -2
-5 -6 -9 -9 -8 -3 1 -115 33 -250 73 -135 39 -253 73 -263 76 -18 6 -14 24 6
24 7 0 64 -16 127 -36z"/>
<path d="M6389 3060 c-40 -4 -56 -14 -127 -80 l-82 -75 16 -60 c9 -33 19 -63
23 -68 4 -4 54 48 111 115 57 68 112 133 122 144 18 20 18 22 1 25 -10 2 -39
2 -64 -1z"/>
<path d="M4404 2165 c-489 -493 -891 -901 -893 -907 -2 -6 5 -8 15 -5 11 3 72
14 136 23 l118 17 137 191 c75 105 164 230 197 278 34 48 66 87 72 87 7 1 15
12 18 25 3 14 231 246 545 556 529 522 539 533 545 578 3 25 4 47 2 49 -2 2
-403 -400 -892 -892z"/>
<path d="M6371 2897 l-113 -132 38 -33 c21 -18 43 -31 50 -30 19 5 183 202
184 220 0 32 -24 108 -35 107 -5 0 -61 -60 -124 -132z"/>
<path d="M7050 3024 c0 -9 284 -374 288 -370 2 2 -13 60 -33 128 -20 67 -39
131 -42 141 -5 18 -53 43 -165 88 -27 10 -48 16 -48 13z"/>
<path d="M3691 2792 l-83 -77 29 -95 30 -95 244 -7 c442 -12 659 -14 652 -8
-5 4 -185 41 -401 83 -217 41 -396 78 -400 81 -3 3 -2 9 2 13 6 6 106 -10 598
-98 223 -40 271 -46 233 -28 -52 23 -800 309 -809 309 -6 -1 -49 -35 -95 -78z"/>
<path d="M5273 2833 c14 -21 42 -67 65 -102 36 -58 44 -91 22 -91 -5 0 -36 44
-69 97 -34 53 -61 90 -61 81 0 -17 57 -238 63 -244 2 -2 28 -1 58 3 l54 8 22
65 c16 48 19 68 11 78 -13 16 -176 142 -183 142 -3 0 5 -17 18 -37z"/>
<path d="M5913 2804 l-31 -47 44 -126 c25 -68 46 -126 48 -128 2 -2 45 40 95
94 l92 98 -6 45 c-4 25 -11 52 -16 62 -9 16 -70 34 -154 44 -38 5 -41 3 -72
-42z"/>
<path d="M5600 2703 l-132 -127 7 -50 c3 -28 8 -52 10 -54 2 -2 82 -27 177
-54 95 -27 178 -53 185 -57 9 -4 -11 -43 -63 -125 l-75 -118 41 -124 c23 -68
46 -124 52 -124 6 0 58 34 115 76 l105 77 -7 143 c-7 136 -6 144 11 144 11 -1
78 -18 149 -39 l130 -39 48 46 c26 25 49 53 52 62 2 8 -15 80 -39 160 l-43
145 -56 30 -57 30 -120 -120 c-65 -65 -121 -117 -124 -115 -2 3 -29 70 -59
150 l-54 145 -60 32 -60 33 -133 -127z"/>
<path d="M6444 2744 l-68 -76 18 -127 c16 -105 33 -184 35 -160 3 27 63 343
66 349 5 9 24 90 20 90 -1 0 -33 -34 -71 -76z"/>
<path d="M4528 2752 c-38 -28 -44 -48 -29 -102 7 -25 8 -25 106 -22 55 2 104
8 110 13 5 6 4 9 -5 9 -7 0 -49 10 -93 21 -55 15 -75 25 -68 32 9 9 126 -11
179 -30 6 -3 12 -1 12 3 -1 13 -143 104 -160 103 -8 0 -32 -13 -52 -27z"/>
<path d="M5164 2705 c3 -16 15 -100 26 -185 11 -85 22 -163 24 -173 4 -17 -39
-56 -50 -45 -3 3 -16 82 -30 174 -27 187 -33 218 -39 212 -5 -5 -75 -399 -75
-424 0 -16 18 -25 93 -48 l92 -28 53 59 c29 32 64 72 78 90 l26 32 -92 173
c-97 184 -116 213 -106 163z"/>
<path d="M6822 2602 c-19 -44 -20 -53 -8 -93 159 -519 416 -1383 416 -1396 0
-13 -73 -66 -240 -173 l-241 -155 6 -55 c12 -107 11 -105 69 -123 29 -9 59
-17 67 -17 8 1 88 101 179 225 91 123 167 221 169 219 3 -2 23 -151 46 -331
l42 -327 34 -28 c73 -61 180 -140 184 -136 6 6 -688 2438 -696 2438 -4 0 -16
-22 -27 -48z m418 -1531 c0 -5 -91 -98 -202 -206 -131 -128 -204 -193 -206
-183 -2 10 38 55 95 109 54 52 143 138 198 191 96 94 115 109 115 89z"/>
<path d="M6895 2603 c8 -27 82 -289 165 -583 83 -294 212 -749 286 -1010 74
-261 156 -549 181 -638 27 -97 49 -158 54 -150 13 23 89 235 89 248 0 6 -70
163 -156 348 l-156 337 -194 710 c-107 391 -197 717 -199 725 -5 14 -64 60
-78 60 -3 0 0 -21 8 -47z"/>
<path d="M7136 2579 c-49 -21 -92 -41 -95 -45 -3 -3 44 -5 104 -3 103 4 135
-1 135 -20 0 -5 -50 -12 -111 -16 -61 -4 -107 -10 -103 -14 10 -9 205 -61 227
-61 8 0 24 23 36 52 l21 52 -47 48 c-26 26 -54 48 -63 47 -8 0 -55 -18 -104
-40z"/>
<path d="M4927 2423 c26 -101 28 -116 11 -111 -7 3 -23 40 -35 84 -12 43 -22
81 -24 84 -4 9 -17 -104 -18 -157 -1 -55 -2 -54 65 -68 27 -5 33 -1 62 39 18
24 32 48 32 53 0 11 -103 163 -111 163 -3 0 5 -39 18 -87z"/>
<path d="M4173 2396 l-36 -74 39 -50 c21 -28 43 -51 47 -52 4 0 34 17 65 38
31 21 86 56 121 77 36 21 60 40 54 42 -6 2 -63 -9 -127 -26 -117 -29 -117 -29
-114 -8 3 22 24 29 232 81 15 4 27 9 25 11 -2 2 -51 8 -109 14 -58 7 -117 14
-133 16 -25 4 -30 -1 -64 -69z"/>
<path d="M6675 2451 l-100 -16 -16 -65 c-18 -72 -17 -75 42 -116 l42 -28 87
94 c49 52 87 96 85 98 -1 2 -45 -20 -97 -48 -52 -27 -98 -50 -101 -50 -4 0 -7
8 -7 18 0 11 32 34 100 70 55 29 100 55 100 57 0 7 -24 5 -135 -14z"/>
<path d="M7110 2384 c0 -5 82 -41 183 -80 179 -70 182 -71 185 -103 2 -17 0
-31 -4 -31 -4 0 -61 21 -128 46 -225 86 -246 94 -246 90 0 -4 297 -249 332
-274 17 -12 26 -7 88 48 39 34 70 68 70 76 0 8 -16 61 -36 119 l-36 105 -152
0 c-83 0 -175 3 -203 6 -29 4 -53 3 -53 -2z"/>
<path d="M4786 2363 c2 -10 24 -130 49 -268 24 -137 56 -310 70 -384 26 -139
31 -191 17 -191 -4 0 -43 177 -86 393 -44 215 -83 399 -87 407 -5 8 -7 -48 -4
-130 3 -80 10 -282 15 -450 6 -167 13 -307 18 -311 9 -9 182 -63 186 -58 2 2
35 41 74 86 40 45 72 88 72 96 0 8 -18 59 -40 113 -106 266 -270 686 -270 694
0 5 -4 11 -9 14 -5 4 -7 -2 -5 -11z"/>
<path d="M6655 2199 c-195 -125 -181 -101 -144 -260 l20 -86 82 -17 c45 -10
89 -20 98 -22 13 -4 30 36 88 207 40 116 70 213 68 215 -2 2 -56 -66 -121
-151 -65 -85 -122 -155 -126 -155 -4 0 -12 12 -19 26 -11 25 -6 35 109 187 66
88 119 161 118 163 -2 1 -80 -47 -173 -107z"/>
<path d="M4662 2208 c-6 -18 -21 -77 -33 -130 -19 -79 -26 -98 -41 -98 -23 0
-23 0 7 132 14 61 23 113 21 115 -2 2 -39 -53 -81 -122 -43 -69 -76 -127 -74
-129 2 -1 26 -20 52 -41 l49 -39 75 38 c74 36 75 38 70 69 -4 18 -11 77 -17
132 -7 55 -13 101 -15 103 -2 2 -8 -12 -13 -30z"/>
<path d="M7233 2063 c-29 -2 -53 -7 -53 -12 0 -4 41 -18 90 -30 58 -15 90 -28
90 -37 0 -18 3 -18 -92 7 -44 11 -82 18 -85 16 -2 -3 27 -24 64 -47 37 -24 78
-49 89 -57 20 -13 24 -11 53 26 l32 40 -26 50 c-28 57 -17 54 -162 44z"/>
<path d="M6855 1948 c-44 -22 -82 -42 -84 -44 -2 -2 0 -28 4 -59 7 -58 15 -67
70 -79 30 -6 31 -5 78 89 26 52 43 95 38 95 -6 0 -35 -29 -67 -65 -52 -59 -74
-72 -74 -43 0 5 30 41 67 79 36 38 62 69 57 69 -5 -1 -45 -19 -89 -42z"/>
<path d="M7275 1860 c28 -11 207 -73 399 -139 322 -111 378 -133 365 -145 -2
-3 -177 51 -389 120 -211 68 -388 123 -392 122 -4 -2 18 -16 50 -33 31 -16
209 -110 396 -208 l338 -177 57 49 c101 88 97 73 55 192 -20 57 -40 108 -44
112 -7 8 -833 127 -870 126 -8 0 8 -9 35 -19z"/>
<path d="M4230 1851 c0 -7 36 -128 80 -268 81 -257 87 -283 71 -283 -10 0 -22
37 -84 240 -19 63 -47 155 -61 204 -15 48 -29 86 -32 84 -5 -6 64 -524 75
-558 6 -20 18 -27 67 -36 34 -7 63 -9 70 -3 5 4 28 33 49 64 l38 56 -21 42
c-25 49 -96 182 -169 317 -28 52 -59 109 -67 125 -9 17 -16 24 -16 16z"/>
<path d="M6652 1540 c-188 -154 -343 -283 -345 -288 -5 -7 40 -223 48 -230 2
-2 45 -13 96 -24 76 -16 94 -17 104 -6 10 10 435 726 453 763 11 22 -46 -42
-268 -305 -273 -323 -276 -325 -284 -312 -5 9 199 264 506 635 22 26 38 47 35
47 -3 0 -158 -126 -345 -280z"/>
<path d="M7292 1711 c2 -4 44 -45 93 -92 50 -46 92 -90 93 -97 10 -40 -22 -23
-106 55 -51 47 -95 83 -98 81 -4 -5 119 -233 135 -251 4 -4 35 5 69 20 l62 26
0 82 c0 70 -3 83 -17 88 -10 2 -67 25 -126 51 -60 25 -107 42 -105 37z"/>
<path d="M6943 1535 c-40 -58 -73 -109 -73 -115 0 -6 18 -38 41 -72 l41 -60
56 7 c86 11 81 4 76 123 -3 59 -7 127 -11 152 -5 44 -6 43 -40 -80 -19 -69
-37 -127 -39 -129 -3 -3 -11 2 -20 10 -13 14 -12 27 16 129 18 62 34 119 37
127 15 38 -20 0 -84 -92z"/>
<path d="M7411 1136 c2 -2 126 -29 274 -61 254 -53 297 -66 283 -81 -4 -3
-131 22 -283 56 -152 34 -278 60 -280 58 -7 -7 546 -220 559 -215 7 3 30 25
50 50 l36 44 -34 70 -34 70 -159 6 c-174 8 -419 9 -412 3z"/>
</g>
</svg>
