<?xml version="1.0"?><svg xmlns="http://www.w3.org/2000/svg" viewBox="0 0 100 100"><g><path fill="none" stroke="#c33736" stroke-width="3" stroke-linecap="round" stroke-linejoin="round" stroke-miterlimit="10" d="M57.698 84.493L54.779 92.5l-2.328-4.137-4.444 1.668 3.359-9.212"/><path fill="none" stroke="#c33736" stroke-width="3" stroke-linecap="round" stroke-linejoin="round" stroke-miterlimit="10" d="M62.761 84.493L65.68 92.5l2.328-4.137 4.444 1.668-3.359-9.212"/><path d="M57.855 84.316a1.348 1.348 0 0 0-1.012-.271l-2.019.276a1.35 1.35 0 0 1-1.435-.829l-.77-1.886a1.347 1.347 0 0 0-.741-.741l-1.886-.77a1.354 1.354 0 0 1-.829-1.435l.276-2.019a1.352 1.352 0 0 0-.271-1.012l-1.249-1.61a1.352 1.352 0 0 1 0-1.657l1.249-1.61c.223-.287.321-.652.271-1.012l-.276-2.019a1.35 1.35 0 0 1 .829-1.435l1.886-.77c.337-.137.604-.404.741-.741l.77-1.886a1.354 1.354 0 0 1 1.435-.829l2.019.276c.36.049.725-.048 1.012-.271l1.61-1.249a1.352 1.352 0 0 1 1.657 0l1.61 1.249c.287.223.652.321 1.012.271l2.019-.276a1.35 1.35 0 0 1 1.435.829l.77 1.886c.137.337.404.604.741.741l1.886.77c.571.233.912.824.829 1.435l-.276 2.019c-.049.36.048.725.271 1.012l1.249 1.61c.378.488.378 1.17 0 1.657l-1.249 1.61a1.348 1.348 0 0 0-.271 1.012l.276 2.019a1.35 1.35 0 0 1-.829 1.435l-1.886.77a1.347 1.347 0 0 0-.741.741l-.77 1.886a1.354 1.354 0 0 1-1.435.829l-2.019-.276a1.352 1.352 0 0 0-1.012.271l-1.61 1.249a1.352 1.352 0 0 1-1.657 0l-1.61-1.249z" fill="none" stroke="#c33736" stroke-width="3" stroke-linecap="round" stroke-linejoin="round" stroke-miterlimit="10"/></g><path d="M86.855 77.015l.465-6.741a4.782 4.782 0 0 0-1.317-3.124L73.64 54.184a4.78 4.78 0 0 0-3.459-1.481h-7.367a3.372 3.372 0 0 1-3.372-3.372v-5.305c4.24-2.008 7.18-6.314 7.18-11.318v-12.79c0-6.858-5.56-12.418-12.418-12.418h-8.409c-6.858 0-12.418 5.56-12.418 12.418v12.79c0 5.003 2.94 9.309 7.18 11.318v5.305a3.372 3.372 0 0 1-3.372 3.372h-7.367a4.78 4.78 0 0 0-3.459 1.481L13.997 67.149a4.777 4.777 0 0 0-1.317 3.124l.465 6.741" fill="none" stroke="#000" stroke-width="3" stroke-linecap="round" stroke-linejoin="round" stroke-miterlimit="10"/><metadata xmlns:d="https://loading.io/stock/">
<d:name>vip</d:name>
<d:tags>vip,winner,champion,top,best,rank,prize,award,victory</d:tags>
<d:license>by</d:license>
<d:slug>tgg163</d:slug>
</metadata></svg>